<?xml version="1.0" standalone="no"?>
<!DOCTYPE svg PUBLIC "-//W3C//DTD SVG 20010904//EN"
 "http://www.w3.org/TR/2001/REC-SVG-20010904/DTD/svg10.dtd">
<svg version="1.0" xmlns="http://www.w3.org/2000/svg"
 width="512.000000pt" height="512.000000pt" viewBox="0 0 512.000000 512.000000"
 preserveAspectRatio="xMidYMid meet">
<metadata>
Created by potrace 1.11, written by Peter Selinger 2001-2013
</metadata>
<g transform="translate(0.000000,512.000000) scale(0.100000,-0.100000)"
fill="#000000" stroke="none">
<path d="M463 4300 c-93 -19 -172 -81 -221 -173 l-27 -52 -3 -1342 -2 -1343
-76 0 c-71 0 -77 -2 -106 -30 l-30 -30 4 -163 c3 -143 6 -167 25 -202 28 -54
100 -119 149 -136 58 -21 4710 -21 4768 0 49 17 121 82 149 136 19 35 22 59
25 202 l4 163 -30 30 c-29 28 -35 30 -106 30 l-76 0 -2 1343 -3 1342 -27 52
c-37 70 -89 120 -157 152 l-56 26 -2080 1 c-1144 1 -2099 -2 -2122 -6z m4195
-174 c15 -8 38 -26 52 -41 l25 -27 3 -1334 2 -1334 -2180 0 -2180 0 2 1334 c3
1318 3 1334 23 1356 11 13 34 31 50 41 29 18 102 19 2103 19 1761 0 2077 -2
2100 -14z m-2448 -2941 c0 -43 18 -81 55 -115 l27 -25 268 0 268 0 27 25 c37
34 55 72 55 115 l0 35 1025 0 1025 0 0 -70 c0 -79 -17 -130 -51 -154 -22 -15
-215 -16 -2349 -16 -2134 0 -2327 1 -2349 16 -34 24 -51 75 -51 154 l0 70
1025 0 1025 0 0 -35z m588 3 l-3 -33 -235 0 -235 0 -3 33 -3 32 241 0 241 0
-3 -32z"/>
<path d="M519 4037 c-18 -12 -39 -34 -46 -47 -18 -36 -18 -2414 0 -2450 7 -13
28 -35 46 -47 l34 -23 2007 0 2007 0 34 23 c18 12 39 34 46 47 18 36 18 2414
0 2450 -7 13 -28 35 -46 47 l-34 23 -2007 0 -2007 0 -34 -23z m4031 -1272 l0
-1185 -1990 0 -1990 0 0 1185 0 1185 1990 0 1990 0 0 -1185z"/>
</g>
</svg>
